<?xml version="1.0" standalone="no"?>
<!DOCTYPE svg PUBLIC "-//W3C//DTD SVG 20010904//EN"
 "http://www.w3.org/TR/2001/REC-SVG-20010904/DTD/svg10.dtd">
<svg version="1.0" xmlns="http://www.w3.org/2000/svg"
 width="600.000000pt" height="600.000000pt" viewBox="0 0 600.000000 600.000000"
 preserveAspectRatio="xMidYMid meet">
<metadata>
Created by potrace 1.11, written by Peter Selinger 2001-2013
</metadata>
<g transform="translate(0.000000,600.000000) scale(0.100000,-0.100000)"
fill="#000000" stroke="none">
<path d="M2845 5984 c-11 -2 -63 -8 -115 -13 -52 -6 -118 -12 -146 -15 -121
-12 -467 -95 -570 -137 -16 -7 -34 -13 -40 -14 -6 -2 -27 -10 -45 -18 -19 -8
-51 -21 -71 -28 -21 -7 -38 -17 -38 -22 0 -4 -4 -6 -9 -3 -11 7 -311 -143
-311 -155 0 -5 -4 -8 -8 -6 -13 4 -132 -75 -126 -84 3 -5 -1 -6 -9 -4 -7 3
-25 -5 -40 -19 -14 -13 -28 -22 -30 -20 -2 3 -18 -9 -36 -25 -17 -16 -31 -27
-31 -24 0 2 -27 -17 -60 -42 -34 -26 -57 -51 -54 -57 5 -7 2 -8 -5 -3 -15 9
-73 -43 -64 -58 4 -6 1 -7 -6 -2 -8 4 -61 -41 -152 -131 -76 -77 -139 -141
-139 -144 0 -3 -23 -30 -50 -60 -28 -30 -48 -60 -46 -67 3 -7 1 -12 -5 -10
-22 4 -272 -371 -272 -408 0 -8 -3 -12 -7 -10 -7 5 -64 -109 -61 -121 2 -4 -2
-10 -7 -13 -25 -16 -138 -313 -126 -333 5 -7 3 -8 -6 -3 -10 6 -12 3 -8 -13 4
-12 3 -20 -2 -17 -7 4 -48 -121 -54 -167 -2 -13 -7 -31 -11 -40 -4 -10 -8 -32
-9 -50 0 -18 -4 -35 -7 -38 -8 -6 -49 -244 -49 -280 0 -14 -5 -70 -11 -125
-12 -112 -6 -433 11 -565 17 -137 61 -360 72 -360 5 0 7 -4 3 -9 -8 -14 16
-102 26 -95 5 3 6 -1 3 -9 -13 -35 174 -517 209 -539 7 -4 8 -8 4 -8 -5 0 0
-12 10 -27 10 -16 26 -45 36 -66 11 -24 22 -35 29 -31 7 4 8 3 4 -5 -8 -13 93
-183 104 -176 4 2 7 -1 7 -8 0 -21 35 -67 46 -60 5 3 7 1 4 -4 -7 -12 58 -103
74 -103 6 0 8 -4 4 -9 -3 -5 3 -16 13 -23 10 -7 21 -18 23 -25 9 -25 152 -173
161 -166 6 3 8 2 5 -4 -11 -17 263 -269 289 -267 8 1 11 -2 9 -7 -3 -4 7 -16
22 -26 15 -10 37 -26 47 -35 10 -10 24 -14 30 -11 6 3 8 2 4 -2 -8 -8 143
-115 162 -115 5 0 10 -3 10 -7 0 -5 30 -24 68 -43 37 -19 69 -38 72 -41 10
-12 130 -69 130 -62 0 5 4 3 8 -4 11 -17 102 -54 115 -46 7 3 9 2 4 -2 -10
-11 215 -102 296 -120 12 -2 54 -14 92 -25 39 -11 76 -18 83 -15 6 2 12 1 12
-4 0 -11 175 -45 188 -37 6 3 12 2 14 -4 2 -6 39 -12 83 -15 44 -3 107 -9 140
-15 80 -13 538 -12 595 1 55 13 107 20 138 20 12 -1 22 3 22 7 0 4 12 8 28 8
69 2 83 5 78 12 -3 5 9 6 26 4 23 -4 29 -2 23 8 -5 9 -4 11 4 6 6 -4 19 -2 28
6 14 11 16 11 8 -1 -6 -11 -5 -12 6 -5 8 5 22 7 33 5 11 -1 16 2 12 8 -5 7 -1
8 9 5 8 -4 22 -1 30 6 8 7 15 10 15 7 0 -3 15 -1 33 4 41 13 59 17 75 18 7 1
11 5 8 10 -4 5 4 7 16 3 16 -4 19 -2 13 8 -5 8 -4 11 3 6 16 -10 63 4 55 17
-4 6 0 8 10 4 20 -8 49 2 42 13 -3 5 5 6 17 2 13 -3 19 -1 15 5 -5 7 1 9 15 5
14 -3 19 -1 14 6 -5 8 -2 10 8 6 9 -4 16 -1 16 6 0 7 7 10 15 6 8 -3 21 2 30
10 8 9 15 13 15 10 0 -3 13 0 30 5 16 6 27 15 24 20 -3 5 3 6 12 2 13 -5 15
-3 9 7 -5 8 -4 11 2 7 13 -8 105 37 96 48 -5 4 -3 5 4 1 6 -3 29 3 50 15 21
12 56 32 78 45 22 12 55 30 72 39 18 10 30 21 27 26 -3 5 4 9 15 9 12 0 21 5
21 11 0 5 4 8 9 4 6 -3 14 3 20 12 6 10 11 14 11 10 0 -5 6 -2 14 5 30 28 56
47 56 41 0 -4 9 3 20 15 12 12 25 22 31 22 6 0 7 5 4 11 -4 6 0 9 11 7 11 -2
18 2 17 9 -2 7 3 12 10 10 6 -1 11 4 9 11 -1 8 2 11 8 7 11 -7 40 17 40 33 0
5 8 9 18 8 9 0 16 5 15 11 -2 7 3 12 10 10 6 -1 11 4 10 10 -2 7 1 12 6 10 16
-4 72 44 65 56 -4 7 -4 9 1 5 9 -8 141 121 138 134 -2 4 3 8 10 8 17 0 47 36
39 46 -4 4 -2 4 4 1 6 -4 20 5 30 20 11 14 27 33 36 41 9 9 15 19 12 24 -3 5
0 7 6 6 7 -2 20 12 30 30 10 19 22 37 26 40 4 4 4 0 -1 -8 -13 -24 3 -6 45 50
22 29 37 57 34 62 -3 5 0 7 8 6 7 -2 12 5 12 14 -1 10 2 16 6 13 4 -3 16 7 25
21 12 18 13 24 4 19 -8 -4 -3 2 10 13 14 11 21 24 17 31 -4 6 -4 10 1 9 4 -2
10 2 12 7 3 6 13 19 23 29 10 11 18 26 18 33 0 7 5 13 10 13 6 0 10 6 10 13 0
8 9 24 20 37 11 12 17 27 14 31 -3 5 0 9 6 9 7 0 9 7 6 16 -3 8 -2 12 4 9 10
-6 14 7 11 33 -1 7 2 11 6 10 4 -2 9 1 10 5 1 4 9 15 18 24 9 8 14 22 11 30
-3 8 -2 12 3 9 12 -8 22 20 14 41 -4 10 -2 14 4 10 13 -8 26 20 16 35 -3 6 -1
8 4 5 6 -4 14 3 18 16 4 12 8 24 9 27 2 3 8 19 15 35 6 17 14 37 18 45 3 8 5
19 4 24 -1 5 3 12 9 16 7 4 13 19 13 33 1 14 6 23 11 19 5 -3 7 2 3 11 -4 10
-2 17 4 17 6 0 9 9 6 20 -3 11 -2 18 3 15 10 -6 23 43 14 57 -5 7 -2 8 6 3 10
-6 12 -4 7 8 -3 10 -3 17 2 17 10 0 22 49 23 92 0 15 4 25 9 22 5 -3 9 3 10
13 0 10 3 27 5 38 5 19 10 45 18 90 2 11 7 28 11 37 4 9 4 21 1 27 -4 5 -2 12
3 15 5 4 10 19 10 34 0 15 2 38 6 52 7 31 17 127 20 203 1 32 5 60 9 64 9 9 8
343 -1 343 -5 0 -7 29 -6 65 1 36 -2 65 -5 65 -4 0 -8 32 -9 72 -1 39 -5 78
-9 87 -8 19 -14 57 -14 89 0 13 -4 21 -9 18 -4 -3 -7 7 -5 21 1 15 0 32 -3 37
-4 6 -8 19 -9 30 -1 12 -5 32 -8 46 -4 14 -8 30 -10 37 -1 7 -5 15 -8 19 -4 3
-4 12 -2 19 3 7 1 16 -5 19 -6 4 -7 14 -4 23 4 10 2 14 -4 10 -7 -5 -9 0 -6
13 3 11 0 20 -6 20 -5 0 -8 7 -5 15 4 8 2 15 -4 15 -5 0 -10 6 -9 13 1 34 -4
48 -15 41 -6 -4 -8 -3 -5 3 7 11 -23 115 -36 124 -5 3 -8 9 -8 13 1 3 0 8 0
11 -1 3 -3 10 -4 15 -1 6 -3 15 -4 21 0 5 -5 8 -10 5 -5 -4 -7 3 -4 14 3 11 0
20 -6 20 -6 0 -10 3 -9 8 4 14 -14 52 -22 47 -4 -3 -6 4 -3 15 3 11 0 20 -6
20 -6 0 -11 6 -11 13 0 18 -24 67 -32 67 -5 0 -8 9 -8 20 0 11 -5 20 -12 20
-6 0 -8 3 -5 6 10 11 -13 45 -25 38 -6 -4 -8 -3 -5 4 9 13 -2 44 -13 37 -4 -3
-7 3 -6 13 0 9 -4 16 -11 15 -7 -2 -10 4 -7 12 4 8 1 15 -5 15 -6 0 -11 9 -11
20 0 11 -4 20 -10 20 -5 0 -10 6 -10 13 0 7 -9 23 -20 35 -11 12 -20 26 -20
31 0 5 -5 13 -12 17 -7 5 -8 3 -3 -6 5 -8 4 -11 -3 -6 -6 4 -9 12 -6 19 2 7
-5 22 -16 34 -11 12 -20 27 -20 32 0 5 -8 16 -18 23 -10 7 -21 21 -25 31 -4
11 -12 15 -18 11 -8 -5 -9 -3 -4 6 4 7 4 15 -1 19 -5 3 -21 22 -35 41 -15 19
-39 49 -55 67 -16 17 -42 47 -57 67 -16 20 -33 33 -39 30 -6 -4 -8 -3 -5 3 8
13 -27 46 -38 36 -4 -5 -5 -3 -2 3 3 6 -3 16 -13 24 -10 8 -16 18 -13 24 4 5
-1 7 -10 3 -10 -4 -16 -2 -14 6 1 7 -5 10 -13 9 -8 -2 -12 0 -8 4 10 9 -12 35
-23 28 -5 -3 -9 1 -9 8 0 16 -35 48 -52 48 -6 0 -9 3 -5 6 6 6 -16 34 -27 34
-4 0 -20 13 -37 30 -18 16 -36 27 -42 23 -5 -3 -7 -1 -4 4 4 6 0 16 -8 23 -8
7 -15 9 -15 6 0 -4 -13 6 -29 21 -48 46 -61 54 -71 48 -6 -4 -9 -1 -8 7 2 7
-5 12 -14 12 -10 -1 -16 2 -13 6 3 4 -3 14 -12 21 -14 12 -16 12 -8 -1 4 -8
-3 -3 -18 13 -14 15 -33 27 -40 27 -8 0 -18 7 -21 16 -3 8 -10 12 -16 9 -5 -3
-10 -2 -10 3 0 11 -90 58 -103 54 -5 -1 -6 2 -2 8 3 5 1 11 -4 11 -6 1 -15 2
-19 3 -5 0 -17 9 -27 19 -9 10 -24 16 -32 13 -8 -3 -11 -1 -8 4 6 9 -8 14 -27
11 -5 0 -8 4 -8 10 0 5 -4 7 -10 4 -5 -3 -10 -2 -10 3 0 9 -32 24 -58 26 -7 1
-17 7 -21 15 -5 8 -14 10 -21 6 -8 -5 -11 -4 -6 3 8 13 -29 26 -46 16 -7 -4
-10 -3 -5 1 9 11 -51 37 -66 28 -5 -3 -7 -1 -3 5 8 13 -29 26 -45 16 -8 -4 -9
-3 -5 4 6 11 -5 15 -30 11 -4 0 -10 4 -13 10 -4 6 -19 12 -34 13 -15 1 -27 5
-27 8 0 3 -21 12 -47 20 -67 20 -75 22 -100 24 -11 0 -19 5 -15 10 3 5 -5 7
-16 4 -12 -4 -22 -2 -22 4 0 6 -9 8 -20 5 -11 -3 -20 -1 -20 5 0 6 -7 8 -15 5
-8 -4 -17 -1 -21 4 -3 6 -15 9 -25 6 -11 -3 -19 -1 -19 3 0 5 -8 9 -17 9 -10
0 -38 4 -62 9 -24 6 -51 9 -60 7 -9 -1 -19 2 -22 7 -4 6 -62 12 -129 13 -68 2
-126 8 -129 14 -4 5 -19 8 -34 7 -15 -2 -30 1 -33 5 -5 9 -277 10 -319 3z"/>
</g>
</svg>
